# xmcd
#
# Track frame offsets:
#	150
#	20585
#	48085
#	64020
#	77782
#	84032
#	102312
#	119227
#	140665
#	174427
#
# Disc length: 2534 seconds
#
# Revision: 1
# Processed by: cddbd v1.5.1PL0 Copyright (c) Steve Scherf et al.
# Submitted via: CDex 1.50Beta5
#
DISCID=7f09e40a
DTITLE=TINGARA - TINGARA
DYEAR=1900
DGENRE=
TTITLE0=夜間飛行
TTITLE1=てぃんさぐぬ花
TTITLE2=IN THE WOODS〜国頭大福
TTITLE3=べーべぬ草刈いが
TTITLE4=Interlude〜花風
TTITLE5=月ぬ美しゃ
TTITLE6=上い口説
TTITLE7=波ぬ花
TTITLE8=恋ぬ花
TTITLE9=Epilogue〜与那国しょんかね
EXTD=
EXTT0=
EXTT1=
EXTT2=
EXTT3=
EXTT4=
EXTT5=
EXTT6=
EXTT7=
EXTT8=
EXTT9=
PLAYORDER=
